<svg width="2892" height="2892" viewBox="0 0 2892 2892" fill="none" xmlns="http://www.w3.org/2000/svg">
<path fill-rule="evenodd" clip-rule="evenodd" d="M1042.39 228.796C1051.15 223.913 1061.78 223.73 1070.7 228.31L2597.2 1011.81C2607.21 1016.95 2613.5 1027.25 2613.5 1038.5V1356.5C2613.5 1367.18 2607.82 1377.05 2598.59 1382.43L2501 1439.25V2229C2501 2239.88 2495.1 2249.92 2485.59 2255.21L2133.59 2451.21C2119.12 2459.27 2100.85 2454.07 2092.79 2439.59C2084.73 2425.12 2089.93 2406.85 2104.41 2398.79L2441 2211.37V1422C2441 1411.32 2446.68 1401.45 2455.91 1396.07L2553.5 1339.25V1221.87L2135.39 1494.63C2121.51 1503.68 2102.93 1499.77 2093.87 1485.89C2084.82 1472.01 2088.73 1453.43 2102.61 1444.37L2553.5 1150.23V1092.29L2027.5 1417.23V2584.95L2553.5 2280.21V1540.5C2553.5 1523.93 2566.93 1510.5 2583.5 1510.5C2600.07 1510.5 2613.5 1523.93 2613.5 1540.5V2297.5C2613.5 2308.2 2607.8 2318.09 2598.54 2323.46L2012.54 2662.96C2003.94 2667.94 1993.44 2668.34 1984.48 2664.03L1455.98 2409.53C1445.6 2404.53 1439 2394.02 1439 2382.5V1651.6L1278.52 1567.04C1263.86 1559.32 1258.24 1541.17 1265.96 1526.52C1273.68 1511.86 1291.83 1506.24 1306.48 1513.96L1482.98 1606.96C1492.83 1612.15 1499 1622.37 1499 1633.5V2363.65L1967.5 2589.26V1400.5C1967.5 1390.1 1972.89 1380.44 1981.73 1374.98L2522.51 1040.92L1057.58 289.02L371.738 671.318L1841.5 1420.53V1309.27L587.382 699.48C577.255 694.556 570.738 684.375 570.506 673.117C570.275 661.858 576.367 651.419 586.284 646.082L1071.28 385.082C1080.05 380.363 1090.59 380.303 1099.42 384.923L2296.92 1011.92C2306.48 1016.93 2312.62 1026.7 2312.98 1037.49C2313.35 1048.29 2307.88 1058.44 2298.67 1064.08L1901.5 1307.31V2425C1901.5 2435.14 1896.38 2444.59 1887.89 2450.13C1879.4 2455.67 1868.69 2456.54 1859.41 2452.46L1569.91 2324.96C1559.02 2320.16 1552 2309.39 1552 2297.5V1586.19L472.5 1023.47V1985.61L979 1705.31V1400.5C979 1389.95 984.545 1380.17 993.601 1374.75C1002.66 1369.34 1013.89 1369.08 1023.19 1374.07L1151.69 1443.07C1161.43 1448.3 1167.5 1458.45 1167.5 1469.5V1776.5C1167.5 1787.34 1161.65 1797.33 1152.21 1802.65L457.21 2193.65C447.673 2199.01 435.973 2198.76 426.677 2192.99L292.177 2109.49C283.362 2104.02 278 2094.38 278 2084V672.5C278 661.62 283.89 651.593 293.394 646.296L1042.39 228.796ZM1869.84 1256.34L2222.22 1040.54L1085.69 445.464L666.322 671.146L1869.84 1256.34ZM1841.5 1487.88L338 721.466V2067.31L443.252 2132.66L1107.5 1758.96V1487.44L1039 1450.66V1723C1039 1733.91 1033.07 1743.96 1023.53 1749.25L457.026 2062.75C447.733 2067.89 436.414 2067.74 427.265 2062.34C418.116 2056.95 412.5 2047.12 412.5 2036.5V974C412.5 963.513 417.977 953.786 426.944 948.348C435.911 942.91 447.068 942.55 456.367 947.397L1595.87 1541.4C1605.78 1546.57 1612 1556.82 1612 1568V2277.93L1841.5 2379.01V1487.88ZM899 1412.5C915.569 1412.5 929 1425.93 929 1442.5V1651.5C929 1662.36 923.128 1672.38 913.647 1677.68L615.147 1844.68C600.688 1852.77 582.408 1847.61 574.319 1833.15C566.229 1818.69 571.393 1800.41 585.853 1792.32L869 1633.91V1442.5C869 1425.93 882.431 1412.5 899 1412.5Z" fill="black"/>
</svg>
